<svg id="Layer_1" data-name="Layer 1" xmlns="http://www.w3.org/2000/svg" viewBox="0 0 49 30"><rect width="49" height="30" rx="2" fill="#2e6c68"/><path d="M20.924,12.464a2.646,2.646,0,0,0,.628,5.226h.162a.262.262,0,0,0,.122-.02h.081a3.435,3.435,0,0,0,.445-.08h.021a2.5,2.5,0,0,0,.405-.139,1.849,1.849,0,0,0,.567-.339.828.828,0,0,0,.344-.519.6.6,0,0,0-.141-.4.557.557,0,0,0-.426-.179h-.04a.732.732,0,0,0-.365.139l-.081.06-.121.08a1.366,1.366,0,0,1-.547.239s-.223.04-.264.04h-.1a1.539,1.539,0,0,1-1.479-.957h3.484l.223-.02a.56.56,0,0,0,.426-.22c.182-.239.141-.6,0-1.057A2.736,2.736,0,0,0,20.924,12.464ZM23.132,14.6l-3.018-.021a1.555,1.555,0,0,1,1.945-1.017A1.445,1.445,0,0,1,23.132,14.6Z" fill="#fff"/><path d="M34.294,11.726a2.314,2.314,0,0,0-1.844-.817,2.264,2.264,0,0,0-2.309,2.413v3.531a.719.719,0,0,0,.1.4.527.527,0,0,0,.365.28c.04,0,.081.02.121.02a.562.562,0,0,0,.324-.1.671.671,0,0,0,.264-.618V15.377H32.41A2.188,2.188,0,0,0,34.759,13.6,2.257,2.257,0,0,0,34.294,11.726Zm-.669,1.437a1.128,1.128,0,0,1-1.236,1.117l-1.053-.021V13.242a1.1,1.1,0,0,1,.284-.917,1.079,1.079,0,0,1,.851-.319A1.124,1.124,0,0,1,33.625,13.163Z" fill="#fff"/><path d="M13.328,13.98a.75.75,0,0,0-.061-.2l-.02-.06A2.014,2.014,0,0,0,11.3,12.345a2.824,2.824,0,0,0-.445.04,1.96,1.96,0,0,0-1.58,2.194v2.273a.665.665,0,0,0,.081.36l.02.039a.527.527,0,0,0,.365.28c.04,0,.081.02.121.02a.564.564,0,0,0,.324-.1.692.692,0,0,0,.264-.618l-.021-1.317H10.8c.567,0,.648-.359.669-.518a.569.569,0,0,0-.142-.4.7.7,0,0,0-.527-.18h-.365c.041-.638.3-.838.689-.917a.846.846,0,0,1,.831.259.823.823,0,0,1,.182.3,1.542,1.542,0,0,0,.223.658l.02.04a.585.585,0,0,0,.709.12C13.49,14.678,13.369,14.18,13.328,13.98Z" fill="#fff"/><path d="M6.36,10.964a2.808,2.808,0,0,0-.993,0A2.34,2.34,0,0,0,3.4,13.338v3.53a.743.743,0,0,0,.081.4l.021.02a.629.629,0,0,0,.344.259.3.3,0,0,0,.142.02.626.626,0,0,0,.324-.1.687.687,0,0,0,.283-.619V15.572H7.19v1.276a.8.8,0,0,0,.1.4.522.522,0,0,0,.364.279c.041,0,.081.02.122.02a.617.617,0,0,0,.324-.1.694.694,0,0,0,.263-.619v-3.51A2.406,2.406,0,0,0,6.36,10.964Zm.79,2.374v1.137H4.577V13.338a1.168,1.168,0,0,1,.567-1.1,1.386,1.386,0,0,1,.993-.2.911.911,0,0,1,.425.18l.021.02A1.169,1.169,0,0,1,7.15,13.338Z" fill="#fff"/><path d="M17.825,15.137a.69.69,0,0,0-.446.04.672.672,0,0,0-.344.5l-.041.2v.04a.838.838,0,0,1-.992.658c-.324-.04-.709-.219-.729-1.037h.3c.608,0,.709-.339.709-.558a.543.543,0,0,0-.465-.539,1.271,1.271,0,0,0-.264-.02h-.263v-1.4a.875.875,0,0,0-.061-.359l-.02-.04a.526.526,0,0,0-.365-.279.567.567,0,0,0-.445.08.69.69,0,0,0-.264.618v2.314c0,1.376.547,2.114,1.7,2.293a2.778,2.778,0,0,0,.405.04,1.973,1.973,0,0,0,1.945-1.456c.02-.06.02-.119.04-.2v-.02a.8.8,0,0,0-.061-.579A.511.511,0,0,0,17.825,15.137Z" fill="#fff"/><path d="M29.209,13.98c-.02-.06-.02-.1-.04-.159l-.041-.1a2.014,2.014,0,0,0-1.944-1.376,3.08,3.08,0,0,0-.446.04,1.96,1.96,0,0,0-1.58,2.194v2.273a.72.72,0,0,0,.1.4.527.527,0,0,0,.365.28c.04,0,.081.02.121.02a.562.562,0,0,0,.324-.1.669.669,0,0,0,.244-.618V14.6c0-.8.283-1,.688-1.1a.891.891,0,0,1,.831.259.862.862,0,0,1,.182.3,1.542,1.542,0,0,0,.223.658l.02.04a.585.585,0,0,0,.709.12C29.351,14.678,29.25,14.18,29.209,13.98Z" fill="#fff"/><path d="M45.6,13.183a.779.779,0,0,0-.041-.26s-.131-.375-.425-.4-.324,0-.446.08a.66.66,0,0,0-.263.618v2.254a1.187,1.187,0,0,1-.324.9.858.858,0,0,1-.709.179.89.89,0,0,1-.77-1V13.183a.824.824,0,0,0-.081-.4.527.527,0,0,0-.365-.28.571.571,0,0,0-.445.08.674.674,0,0,0-.264.619v2.333a1.928,1.928,0,0,0,1.317,1.995,2.127,2.127,0,0,0,1.641-.12c.02.459-.1,1.057-.608,1.157a1.059,1.059,0,0,1-.668-.06.825.825,0,0,1-.284-.219l-.121-.16-.081-.08a.5.5,0,0,0-.142-.139l-.061-.04a.547.547,0,0,0-.527-.02.529.529,0,0,0-.324.419.9.9,0,0,0,.2.638l.02.02a2.407,2.407,0,0,0,.385.4,1.991,1.991,0,0,0,1.236.4,3.843,3.843,0,0,0,.627-.08c1.479-.459,1.479-2.194,1.479-2.773Z" fill="#fff"/><path d="M40.512,14.18a2.555,2.555,0,0,0-1.235-1.516,2.862,2.862,0,0,0-2.147-.22,2.674,2.674,0,0,0-1.884,1.995,2.586,2.586,0,0,0,1.9,3.112,3.264,3.264,0,0,0,.749.1,2.9,2.9,0,0,0,1.094-.219,2.841,2.841,0,0,0,.486-.279.148.148,0,0,0,.041.079l.02.04a.639.639,0,0,0,.344.26.572.572,0,0,0,.446-.08.672.672,0,0,0,.263-.618V14.838A3.63,3.63,0,0,0,40.512,14.18Zm-1.033.778a1.486,1.486,0,0,1-1.2,1.575,1.528,1.528,0,0,1-1.863-1.057v-.04a.876.876,0,0,1-.061-.319,1.569,1.569,0,0,1,1.073-1.6,1.642,1.642,0,0,1,1.4.2A1.576,1.576,0,0,1,39.479,14.958Z" fill="#fff"/></svg>